<svg id="visual" viewBox="0 0 960 540" width="960" height="540" xmlns="http://www.w3.org/2000/svg" xmlns:xlink="http://www.w3.org/1999/xlink" version="1.1"><rect x="0" y="0" width="960" height="540" fill="#2F0031"></rect><defs><linearGradient id="grad1_0" x1="43.8%" y1="100%" x2="100%" y2="0%"><stop offset="14.444444444444446%" stop-color="#510054" stop-opacity="1"></stop><stop offset="85.55555555555554%" stop-color="#510054" stop-opacity="1"></stop></linearGradient></defs><defs><linearGradient id="grad1_1" x1="43.8%" y1="100%" x2="100%" y2="0%"><stop offset="14.444444444444446%" stop-color="#510054" stop-opacity="1"></stop><stop offset="85.55555555555554%" stop-color="#2f0031" stop-opacity="1"></stop></linearGradient></defs><defs><linearGradient id="grad2_0" x1="0%" y1="100%" x2="56.3%" y2="0%"><stop offset="14.444444444444446%" stop-color="#510054" stop-opacity="1"></stop><stop offset="85.55555555555554%" stop-color="#510054" stop-opacity="1"></stop></linearGradient></defs><defs><linearGradient id="grad2_1" x1="0%" y1="100%" x2="56.3%" y2="0%"><stop offset="14.444444444444446%" stop-color="#2f0031" stop-opacity="1"></stop><stop offset="85.55555555555554%" stop-color="#510054" stop-opacity="1"></stop></linearGradient></defs><g transform="translate(960, 540)"><path d="M-297 0C-272.1 -26.1 -247.2 -52.2 -228.3 -74.2C-209.3 -96.1 -196.5 -113.8 -185.3 -134.6C-174.1 -155.4 -164.6 -179.3 -150.5 -207.1C-136.4 -235 -117.6 -266.8 -91.8 -282.5C-65.9 -298.1 -33 -297.6 0 -297L0 0Z" fill="#400042"></path><path d="M-148.5 0C-136 -13.1 -123.6 -26.1 -114.1 -37.1C-104.7 -48 -98.2 -56.9 -92.6 -67.3C-87 -77.7 -82.3 -89.6 -75.2 -103.6C-68.2 -117.5 -58.8 -133.4 -45.9 -141.2C-33 -149.1 -16.5 -148.8 0 -148.5L0 0Z" fill="#510054"></path></g><g transform="translate(0, 0)"><path d="M297 0C283.6 27 270.3 54 264.4 85.9C258.5 117.9 260 154.8 240.3 174.6C220.5 194.4 179.4 197 150.5 207.1C121.5 217.2 104.6 234.8 81.6 251.1C58.5 267.3 29.3 282.2 0 297L0 0Z" fill="#400042"></path><path d="M148.5 0C141.8 13.5 135.1 27 132.2 43C129.2 58.9 130 77.4 120.1 87.3C110.3 97.2 89.7 98.5 75.2 103.6C60.8 108.6 52.3 117.4 40.8 125.5C29.3 133.7 14.6 141.1 0 148.5L0 0Z" fill="#510054"></path></g></svg>