<svg width="524" height="132" viewBox="0 0 524 132" fill="none" xmlns="http://www.w3.org/2000/svg">
<path d="M245.488 83.775C245.488 87.75 244.813 91.4125 243.463 94.7625C242.138 98.0875 240.25 100.95 237.8 103.35C235.375 105.75 232.45 107.625 229.025 108.975C225.6 110.325 221.8 111 217.625 111H196.7V56.5875H217.625C221.8 56.5875 225.6 57.2625 229.025 58.6125C232.45 59.9625 235.375 61.85 237.8 64.275C240.25 66.675 242.138 69.5375 243.463 72.8625C244.813 76.1875 245.488 79.825 245.488 83.775ZM233.938 83.775C233.938 80.925 233.563 78.3625 232.813 76.0875C232.063 73.8125 230.988 71.8875 229.588 70.3125C228.188 68.7375 226.475 67.525 224.45 66.675C222.45 65.825 220.175 65.4 217.625 65.4H208.025V102.187H217.625C220.175 102.187 222.45 101.775 224.45 100.95C226.475 100.1 228.188 98.8875 229.588 97.3125C230.988 95.7125 232.063 93.775 232.813 91.5C233.563 89.225 233.938 86.65 233.938 83.775ZM276.416 87.1125C276.416 86.0375 276.266 85.0125 275.966 84.0375C275.691 83.0625 275.241 82.2 274.616 81.45C273.991 80.7 273.204 80.1125 272.254 79.6875C271.304 79.2375 270.166 79.0125 268.841 79.0125C266.366 79.0125 264.429 79.7125 263.029 81.1125C261.629 82.5125 260.716 84.5125 260.291 87.1125H276.416ZM260.141 93.2625C260.466 96.8875 261.491 99.5375 263.216 101.212C264.966 102.887 267.241 103.725 270.041 103.725C271.466 103.725 272.691 103.562 273.716 103.237C274.766 102.887 275.679 102.512 276.454 102.112C277.254 101.687 277.966 101.312 278.591 100.987C279.241 100.637 279.879 100.462 280.504 100.462C281.304 100.462 281.929 100.762 282.379 101.363L285.379 105.112C284.279 106.387 283.066 107.45 281.741 108.3C280.416 109.125 279.041 109.787 277.616 110.287C276.191 110.762 274.754 111.088 273.304 111.263C271.854 111.463 270.454 111.563 269.104 111.563C266.404 111.563 263.879 111.125 261.529 110.25C259.204 109.35 257.166 108.037 255.416 106.312C253.691 104.562 252.329 102.4 251.329 99.825C250.329 97.25 249.829 94.2625 249.829 90.8625C249.829 88.2375 250.254 85.7625 251.104 83.4375C251.979 81.1125 253.229 79.0875 254.854 77.3625C256.479 75.6375 258.454 74.275 260.779 73.275C263.104 72.25 265.729 71.7375 268.654 71.7375C271.129 71.7375 273.404 72.1375 275.479 72.9375C277.579 73.7125 279.379 74.85 280.879 76.35C282.404 77.85 283.579 79.7 284.404 81.9C285.254 84.075 285.679 86.5625 285.679 89.3625C285.679 90.1375 285.641 90.775 285.566 91.275C285.491 91.775 285.366 92.175 285.191 92.475C285.016 92.775 284.779 92.9875 284.479 93.1125C284.179 93.2125 283.791 93.2625 283.316 93.2625H260.141ZM326.663 72.3375L311.476 111H302.101L286.913 72.3375H295.501C296.251 72.3375 296.876 72.5125 297.376 72.8625C297.876 73.2125 298.226 73.6625 298.426 74.2125L304.913 93.3375C305.338 94.6375 305.713 95.9125 306.038 97.1625C306.363 98.3875 306.651 99.625 306.901 100.875C307.176 99.625 307.476 98.3875 307.801 97.1625C308.151 95.9125 308.551 94.6375 309.001 93.3375L315.713 74.2125C315.888 73.6625 316.226 73.2125 316.726 72.8625C317.226 72.5125 317.813 72.3375 318.488 72.3375H326.663ZM369.468 97.6125C370.093 97.6125 370.618 97.8375 371.043 98.2875L375.505 103.05C373.305 105.85 370.568 107.975 367.293 109.425C364.043 110.875 360.168 111.6 355.668 111.6C351.593 111.6 347.93 110.913 344.68 109.537C341.43 108.137 338.668 106.2 336.393 103.725C334.118 101.25 332.368 98.3125 331.143 94.9125C329.918 91.5125 329.305 87.8 329.305 83.775C329.305 81.075 329.593 78.5125 330.168 76.0875C330.768 73.6375 331.63 71.3875 332.755 69.3375C333.88 67.2875 335.23 65.4375 336.805 63.7875C338.405 62.1375 340.205 60.7375 342.205 59.5875C344.205 58.4125 346.38 57.525 348.73 56.925C351.105 56.3 353.63 55.9875 356.305 55.9875C358.305 55.9875 360.193 56.1625 361.968 56.5125C363.768 56.8625 365.443 57.35 366.993 57.975C368.543 58.6 369.968 59.3625 371.268 60.2625C372.593 61.1375 373.78 62.1 374.83 63.15L371.043 68.325C370.818 68.65 370.53 68.9375 370.18 69.1875C369.83 69.4375 369.355 69.5625 368.755 69.5625C368.155 69.5625 367.543 69.35 366.918 68.925C366.318 68.5 365.568 68.025 364.668 67.5C363.793 66.975 362.68 66.5 361.33 66.075C360.005 65.65 358.318 65.4375 356.268 65.4375C353.993 65.4375 351.905 65.85 350.005 66.675C348.105 67.5 346.468 68.7 345.093 70.275C343.743 71.825 342.693 73.7375 341.943 76.0125C341.193 78.2875 340.818 80.875 340.818 83.775C340.818 86.7 341.218 89.3125 342.018 91.6125C342.843 93.8875 343.955 95.8125 345.355 97.3875C346.78 98.9625 348.43 100.162 350.305 100.987C352.205 101.787 354.23 102.187 356.38 102.187C357.655 102.187 358.805 102.125 359.83 102C360.88 101.875 361.843 101.662 362.718 101.363C363.618 101.062 364.455 100.675 365.23 100.2C366.03 99.725 366.83 99.125 367.63 98.4C367.905 98.175 368.193 97.9875 368.493 97.8375C368.793 97.6875 369.118 97.6125 369.468 97.6125ZM390.856 55.0875V111H380.506V55.0875H390.856ZM416.912 71.7375C419.812 71.7375 422.449 72.2 424.824 73.125C427.199 74.05 429.237 75.375 430.937 77.1C432.637 78.8 433.949 80.875 434.874 83.325C435.799 85.775 436.262 88.5375 436.262 91.6125C436.262 94.6875 435.799 97.4625 434.874 99.9375C433.949 102.387 432.637 104.475 430.937 106.2C429.237 107.925 427.199 109.25 424.824 110.175C422.449 111.1 419.812 111.563 416.912 111.563C413.987 111.563 411.324 111.1 408.924 110.175C406.549 109.25 404.512 107.925 402.812 106.2C401.112 104.475 399.787 102.387 398.837 99.9375C397.912 97.4625 397.449 94.6875 397.449 91.6125C397.449 88.5375 397.912 85.775 398.837 83.325C399.787 80.875 401.112 78.8 402.812 77.1C404.512 75.375 406.549 74.05 408.924 73.125C411.324 72.2 413.987 71.7375 416.912 71.7375ZM416.912 103.8C419.862 103.8 422.049 102.787 423.474 100.762C424.899 98.7125 425.612 95.675 425.612 91.65C425.612 87.65 424.899 84.6375 423.474 82.6125C422.049 80.5625 419.862 79.5375 416.912 79.5375C413.887 79.5375 411.662 80.5625 410.237 82.6125C408.812 84.6375 408.099 87.65 408.099 91.65C408.099 95.675 408.812 98.7125 410.237 100.762C411.662 102.787 413.887 103.8 416.912 103.8ZM476.698 72.3375V111H470.323C468.998 111 468.148 110.4 467.773 109.2L467.098 106.5C466.323 107.25 465.523 107.937 464.698 108.562C463.873 109.187 462.985 109.725 462.035 110.175C461.11 110.625 460.098 110.975 458.998 111.225C457.923 111.475 456.748 111.6 455.473 111.6C453.373 111.6 451.498 111.238 449.848 110.512C448.223 109.787 446.86 108.775 445.76 107.475C444.66 106.175 443.823 104.625 443.248 102.825C442.673 101.025 442.385 99.05 442.385 96.9V72.3375H452.735V96.9C452.735 99.05 453.223 100.725 454.198 101.925C455.198 103.1 456.673 103.687 458.623 103.687C460.073 103.687 461.435 103.375 462.71 102.75C463.985 102.1 465.198 101.225 466.348 100.125V72.3375H476.698ZM509.128 82.3875C508.153 81.2625 507.091 80.475 505.941 80.025C504.816 79.575 503.616 79.35 502.341 79.35C501.091 79.35 499.953 79.5875 498.928 80.0625C497.903 80.5375 497.016 81.2875 496.266 82.3125C495.541 83.3125 494.978 84.6 494.578 86.175C494.178 87.75 493.978 89.625 493.978 91.8C493.978 93.95 494.141 95.775 494.466 97.275C494.791 98.775 495.253 99.9875 495.853 100.912C496.478 101.837 497.228 102.512 498.103 102.937C498.978 103.337 499.953 103.537 501.028 103.537C502.853 103.537 504.378 103.175 505.603 102.45C506.853 101.725 508.028 100.7 509.128 99.375V82.3875ZM519.478 55.0875V111H513.103C511.778 111 510.928 110.4 510.553 109.2L509.691 105.825C508.916 106.675 508.091 107.45 507.216 108.15C506.366 108.85 505.441 109.462 504.441 109.987C503.441 110.487 502.366 110.875 501.216 111.15C500.066 111.425 498.816 111.563 497.466 111.563C495.391 111.563 493.491 111.125 491.766 110.25C490.041 109.375 488.541 108.1 487.266 106.425C486.016 104.725 485.041 102.65 484.341 100.2C483.641 97.75 483.291 94.95 483.291 91.8C483.291 88.925 483.678 86.25 484.453 83.775C485.253 81.3 486.378 79.1625 487.828 77.3625C489.278 75.5625 491.028 74.15 493.078 73.125C495.128 72.1 497.403 71.5875 499.903 71.5875C502.003 71.5875 503.766 71.9 505.191 72.525C506.641 73.15 507.953 74 509.128 75.075V55.0875H519.478Z" fill="#8A44FC"/>
<path fill-rule="evenodd" clip-rule="evenodd" d="M93.0342 104.347C83.9087 113.555 70.6214 119.622 55.627 120.234C26.93 121.405 2.84579 102.152 1.83329 77.2325C0.820792 52.3133 23.2635 31.1632 51.9604 29.9927C73.7396 29.1043 92.8616 39.979 101.258 56.1666L101.253 56.1422C104.49 61.6462 111.102 64.155 117.158 62.1946C121.262 60.1835 125.905 58.9609 130.852 58.759C148.453 58.0411 163.251 70.5123 163.906 86.6135C164.56 102.715 150.822 116.35 133.221 117.069C122.194 117.518 112.267 112.791 106.229 105.237C102.572 102.035 97.1494 101.621 93.0342 104.347Z" fill="#7B2CFB" fill-opacity="0.75"/>
<path fill-rule="evenodd" clip-rule="evenodd" d="M110.939 77.9265C111.661 87.582 116.263 97.4764 124.473 105.106C140.185 119.708 163.161 120.485 175.791 106.841C188.421 93.1969 185.923 70.299 170.211 55.6975C158.286 44.6159 142.178 41.4972 129.584 46.6016L129.599 46.5904C125.1 48.1404 120.135 46.3517 117.648 42.2986C116.294 39.1647 114.252 36.2164 111.543 33.6988C101.905 24.7431 87.4775 24.6299 79.3164 33.4459C71.1553 42.2619 72.3521 56.6687 81.9887 65.6244C88.0266 71.2355 95.945 73.3753 103.024 72.0234C106.647 71.9817 109.924 74.3813 110.939 77.9265Z" fill="#7B2CFB" fill-opacity="0.55"/>
</svg>
